<svg width="25" height="24" viewBox="0 0 25 24" fill="none" xmlns="http://www.w3.org/2000/svg">
<path d="M22.5 12C22.5 9.68645 21.6978 7.44447 20.2301 5.65607C18.7624 3.86767 16.72 2.6435 14.4509 2.19215C12.1818 1.7408 9.8264 2.09019 7.78603 3.18079C5.74566 4.27139 4.14656 6.03572 3.2612 8.17316C2.37585 10.3106 2.25901 12.6889 2.9306 14.9028C3.60219 17.1168 5.02065 19.0294 6.9443 20.3147C8.86795 21.6 11.1778 22.1786 13.4802 21.9518C15.7826 21.7251 17.9351 20.707 19.5711 19.0711L18.1837 17.6837C16.8688 18.9987 15.1385 19.817 13.2879 19.9993C11.4372 20.1816 9.58055 19.7165 8.03432 18.6834C6.48808 17.6502 5.34792 16.1129 4.8081 14.3333C4.26827 12.5538 4.36219 10.6421 5.07384 8.92398C5.78549 7.2059 7.07085 5.78773 8.71091 4.9111C10.351 4.03448 12.2442 3.75363 14.0681 4.11643C15.892 4.47923 17.5337 5.46322 18.7135 6.90074C19.8932 8.33826 20.538 10.1404 20.538 12H22.5Z" fill="#EAEAEC"/>
</svg>
